<mxfile host="app.diagrams.net" agent="Mozilla/5.0 (Windows NT 10.0; Win64; x64) AppleWebKit/537.36 (KHTML, like Gecko) Chrome/136.0.0.0 Safari/537.36" version="28.2.5">
  <diagram name="Page-1" id="nmowAVU46uXdMbXXJ8IN">
    <mxGraphModel dx="1042" dy="1670" grid="1" gridSize="10" guides="1" tooltips="1" connect="1" arrows="1" fold="1" page="1" pageScale="1" pageWidth="850" pageHeight="1100" math="0" shadow="0">
      <root>
        <mxCell id="0" />
        <mxCell id="1" parent="0" />
        <mxCell id="JElKMvJ4L9CgiuBM_3JD-3" value="" style="whiteSpace=wrap;html=1;aspect=fixed;" vertex="1" parent="1">
          <mxGeometry x="170" y="-1060" width="650" height="650" as="geometry" />
        </mxCell>
        <mxCell id="JElKMvJ4L9CgiuBM_3JD-24" style="edgeStyle=orthogonalEdgeStyle;rounded=0;orthogonalLoop=1;jettySize=auto;html=1;exitX=1;exitY=0.3333333333333333;exitDx=0;exitDy=0;exitPerimeter=0;entryX=0;entryY=0.5;entryDx=0;entryDy=0;" edge="1" parent="1" source="JElKMvJ4L9CgiuBM_3JD-4" target="JElKMvJ4L9CgiuBM_3JD-8">
          <mxGeometry relative="1" as="geometry" />
        </mxCell>
        <mxCell id="JElKMvJ4L9CgiuBM_3JD-25" style="edgeStyle=orthogonalEdgeStyle;rounded=0;orthogonalLoop=1;jettySize=auto;html=1;exitX=1;exitY=0.3333333333333333;exitDx=0;exitDy=0;exitPerimeter=0;entryX=0;entryY=0.5;entryDx=0;entryDy=0;" edge="1" parent="1" source="JElKMvJ4L9CgiuBM_3JD-4" target="JElKMvJ4L9CgiuBM_3JD-9">
          <mxGeometry relative="1" as="geometry" />
        </mxCell>
        <mxCell id="JElKMvJ4L9CgiuBM_3JD-26" style="edgeStyle=orthogonalEdgeStyle;rounded=0;orthogonalLoop=1;jettySize=auto;html=1;exitX=1;exitY=0.3333333333333333;exitDx=0;exitDy=0;exitPerimeter=0;entryX=0;entryY=0.5;entryDx=0;entryDy=0;" edge="1" parent="1" source="JElKMvJ4L9CgiuBM_3JD-4" target="JElKMvJ4L9CgiuBM_3JD-13">
          <mxGeometry relative="1" as="geometry" />
        </mxCell>
        <mxCell id="JElKMvJ4L9CgiuBM_3JD-27" style="edgeStyle=orthogonalEdgeStyle;rounded=0;orthogonalLoop=1;jettySize=auto;html=1;exitX=1;exitY=0.3333333333333333;exitDx=0;exitDy=0;exitPerimeter=0;entryX=0;entryY=0.5;entryDx=0;entryDy=0;" edge="1" parent="1" source="JElKMvJ4L9CgiuBM_3JD-4" target="JElKMvJ4L9CgiuBM_3JD-14">
          <mxGeometry relative="1" as="geometry" />
        </mxCell>
        <mxCell id="JElKMvJ4L9CgiuBM_3JD-28" style="edgeStyle=orthogonalEdgeStyle;rounded=0;orthogonalLoop=1;jettySize=auto;html=1;exitX=1;exitY=0.3333333333333333;exitDx=0;exitDy=0;exitPerimeter=0;entryX=0;entryY=0.5;entryDx=0;entryDy=0;" edge="1" parent="1" source="JElKMvJ4L9CgiuBM_3JD-4" target="JElKMvJ4L9CgiuBM_3JD-15">
          <mxGeometry relative="1" as="geometry" />
        </mxCell>
        <mxCell id="JElKMvJ4L9CgiuBM_3JD-29" style="edgeStyle=orthogonalEdgeStyle;rounded=0;orthogonalLoop=1;jettySize=auto;html=1;exitX=1;exitY=0.3333333333333333;exitDx=0;exitDy=0;exitPerimeter=0;entryX=0;entryY=0.5;entryDx=0;entryDy=0;" edge="1" parent="1" source="JElKMvJ4L9CgiuBM_3JD-4" target="JElKMvJ4L9CgiuBM_3JD-19">
          <mxGeometry relative="1" as="geometry" />
        </mxCell>
        <mxCell id="JElKMvJ4L9CgiuBM_3JD-4" value="Student(Tutor/Learner)" style="shape=umlActor;verticalLabelPosition=bottom;verticalAlign=top;html=1;outlineConnect=0;" vertex="1" parent="1">
          <mxGeometry x="80" y="-790" width="30" height="60" as="geometry" />
        </mxCell>
        <mxCell id="JElKMvJ4L9CgiuBM_3JD-30" style="edgeStyle=orthogonalEdgeStyle;rounded=0;orthogonalLoop=1;jettySize=auto;html=1;exitX=1;exitY=0.3333333333333333;exitDx=0;exitDy=0;exitPerimeter=0;entryX=0;entryY=0.5;entryDx=0;entryDy=0;" edge="1" parent="1" source="JElKMvJ4L9CgiuBM_3JD-5" target="JElKMvJ4L9CgiuBM_3JD-21">
          <mxGeometry relative="1" as="geometry" />
        </mxCell>
        <mxCell id="JElKMvJ4L9CgiuBM_3JD-31" style="edgeStyle=orthogonalEdgeStyle;rounded=0;orthogonalLoop=1;jettySize=auto;html=1;exitX=1;exitY=0.3333333333333333;exitDx=0;exitDy=0;exitPerimeter=0;entryX=0;entryY=0.5;entryDx=0;entryDy=0;" edge="1" parent="1" source="JElKMvJ4L9CgiuBM_3JD-5" target="JElKMvJ4L9CgiuBM_3JD-23">
          <mxGeometry relative="1" as="geometry" />
        </mxCell>
        <mxCell id="JElKMvJ4L9CgiuBM_3JD-5" value="Admin" style="shape=umlActor;verticalLabelPosition=bottom;verticalAlign=top;html=1;outlineConnect=0;" vertex="1" parent="1">
          <mxGeometry x="60" y="-590" width="30" height="60" as="geometry" />
        </mxCell>
        <mxCell id="JElKMvJ4L9CgiuBM_3JD-12" style="edgeStyle=orthogonalEdgeStyle;rounded=0;orthogonalLoop=1;jettySize=auto;html=1;exitX=0.5;exitY=1;exitDx=0;exitDy=0;" edge="1" parent="1" source="JElKMvJ4L9CgiuBM_3JD-8" target="JElKMvJ4L9CgiuBM_3JD-9">
          <mxGeometry relative="1" as="geometry" />
        </mxCell>
        <mxCell id="JElKMvJ4L9CgiuBM_3JD-8" value="Sign up/Login" style="ellipse;whiteSpace=wrap;html=1;" vertex="1" parent="1">
          <mxGeometry x="410" y="-1050" width="120" height="60" as="geometry" />
        </mxCell>
        <mxCell id="JElKMvJ4L9CgiuBM_3JD-11" style="edgeStyle=orthogonalEdgeStyle;rounded=0;orthogonalLoop=1;jettySize=auto;html=1;exitX=1;exitY=0.5;exitDx=0;exitDy=0;entryX=0;entryY=0.5;entryDx=0;entryDy=0;" edge="1" parent="1" source="JElKMvJ4L9CgiuBM_3JD-9" target="JElKMvJ4L9CgiuBM_3JD-10">
          <mxGeometry relative="1" as="geometry" />
        </mxCell>
        <mxCell id="JElKMvJ4L9CgiuBM_3JD-9" value="Edit Profile&lt;span style=&quot;color: rgba(0, 0, 0, 0); font-family: monospace; font-size: 0px; text-align: start; text-wrap-mode: nowrap;&quot;&gt;%3CmxGraphModel%3E%3Croot%3E%3CmxCell%20id%3D%220%22%2F%3E%3CmxCell%20id%3D%221%22%20parent%3D%220%22%2F%3E%3CmxCell%20id%3D%222%22%20value%3D%22Sign%20up%2FLogin%22%20style%3D%22ellipse%3BwhiteSpace%3Dwrap%3Bhtml%3D1%3B%22%20vertex%3D%221%22%20parent%3D%221%22%3E%3CmxGeometry%20x%3D%22410%22%20y%3D%22-1050%22%20width%3D%22120%22%20height%3D%2260%22%20as%3D%22geometry%22%2F%3E%3C%2FmxCell%3E%3C%2Froot%3E%3C%2FmxGraphModel%3E&lt;/span&gt;" style="ellipse;whiteSpace=wrap;html=1;" vertex="1" parent="1">
          <mxGeometry x="410" y="-970" width="120" height="60" as="geometry" />
        </mxCell>
        <mxCell id="JElKMvJ4L9CgiuBM_3JD-10" value="Switch Roles" style="ellipse;whiteSpace=wrap;html=1;" vertex="1" parent="1">
          <mxGeometry x="550" y="-970" width="120" height="60" as="geometry" />
        </mxCell>
        <mxCell id="JElKMvJ4L9CgiuBM_3JD-13" value="Skill offer" style="ellipse;whiteSpace=wrap;html=1;" vertex="1" parent="1">
          <mxGeometry x="410" y="-900" width="120" height="60" as="geometry" />
        </mxCell>
        <mxCell id="JElKMvJ4L9CgiuBM_3JD-14" value="Search" style="ellipse;whiteSpace=wrap;html=1;" vertex="1" parent="1">
          <mxGeometry x="410" y="-820" width="120" height="60" as="geometry" />
        </mxCell>
        <mxCell id="JElKMvJ4L9CgiuBM_3JD-15" value="Book Session" style="ellipse;whiteSpace=wrap;html=1;" vertex="1" parent="1">
          <mxGeometry x="410" y="-740" width="120" height="60" as="geometry" />
        </mxCell>
        <mxCell id="JElKMvJ4L9CgiuBM_3JD-18" style="edgeStyle=orthogonalEdgeStyle;rounded=0;orthogonalLoop=1;jettySize=auto;html=1;exitX=0;exitY=0.5;exitDx=0;exitDy=0;entryX=1;entryY=0.5;entryDx=0;entryDy=0;" edge="1" parent="1" source="JElKMvJ4L9CgiuBM_3JD-17" target="JElKMvJ4L9CgiuBM_3JD-15">
          <mxGeometry relative="1" as="geometry" />
        </mxCell>
        <mxCell id="JElKMvJ4L9CgiuBM_3JD-17" value="Notify" style="ellipse;whiteSpace=wrap;html=1;" vertex="1" parent="1">
          <mxGeometry x="570" y="-740" width="120" height="60" as="geometry" />
        </mxCell>
        <mxCell id="JElKMvJ4L9CgiuBM_3JD-19" value="Reviews" style="ellipse;whiteSpace=wrap;html=1;" vertex="1" parent="1">
          <mxGeometry x="410" y="-660" width="120" height="60" as="geometry" />
        </mxCell>
        <mxCell id="JElKMvJ4L9CgiuBM_3JD-21" value="Delete offer/account" style="ellipse;whiteSpace=wrap;html=1;" vertex="1" parent="1">
          <mxGeometry x="410" y="-580" width="120" height="60" as="geometry" />
        </mxCell>
        <mxCell id="JElKMvJ4L9CgiuBM_3JD-23" value="User Data" style="ellipse;whiteSpace=wrap;html=1;" vertex="1" parent="1">
          <mxGeometry x="410" y="-510" width="120" height="60" as="geometry" />
        </mxCell>
      </root>
    </mxGraphModel>
  </diagram>
</mxfile>
